<svg width="44" height="30" viewBox="0 0 44 30" fill="none" xmlns="http://www.w3.org/2000/svg">
<g clip-path="url(#clip0_262_9355)">
<path fill-rule="evenodd" clip-rule="evenodd" d="M0 12.818C0 19.8976 5.73976 25.6364 12.8207 25.6364H19.0528L22.0578 30L24.9787 25.6364H31.1793C38.2598 25.6364 44 19.8976 44 12.818C44 5.73874 38.2598 0 31.1793 0H12.8207C5.73976 0 0 5.73874 0 12.818Z" fill="#FFD15A"/>
<path d="M10.6392 15.3C10.6392 14.56 10.7492 13.955 10.9692 13.485C11.1992 13.015 11.5892 12.575 12.1392 12.165C12.6292 11.785 12.9792 11.47 13.1892 11.22C13.3992 10.96 13.5042 10.66 13.5042 10.32C13.5042 9.94 13.3742 9.645 13.1142 9.435C12.8542 9.215 12.4892 9.105 12.0192 9.105C11.5392 9.105 11.1592 9.25 10.8792 9.54C10.6092 9.82 10.4742 10.165 10.4742 10.575H7.86418C7.86418 9.865 8.03918 9.225 8.38918 8.655C8.74918 8.075 9.23918 7.62 9.85918 7.29C10.4892 6.96 11.2042 6.795 12.0042 6.795C12.8542 6.795 13.5842 6.945 14.1942 7.245C14.8042 7.545 15.2692 7.965 15.5892 8.505C15.9092 9.035 16.0692 9.64 16.0692 10.32C16.0692 11.37 15.5642 12.285 14.5542 13.065C14.0042 13.495 13.6242 13.87 13.4142 14.19C13.2142 14.51 13.1142 14.88 13.1142 15.3H10.6392ZM11.9592 19.56C11.4992 19.56 11.1192 19.41 10.8192 19.11C10.5192 18.82 10.3692 18.445 10.3692 17.985C10.3692 17.525 10.5192 17.145 10.8192 16.845C11.1192 16.545 11.4992 16.395 11.9592 16.395C12.4192 16.395 12.7992 16.545 13.0992 16.845C13.3992 17.145 13.5492 17.525 13.5492 17.985C13.5492 18.445 13.3992 18.82 13.0992 19.11C12.7992 19.41 12.4192 19.56 11.9592 19.56ZM20.0539 15.3H18.1939L17.5039 7.125H20.7439L20.0539 15.3ZM19.1239 16.395C19.5839 16.395 19.9639 16.545 20.2639 16.845C20.5639 17.145 20.7139 17.525 20.7139 17.985C20.7139 18.445 20.5639 18.82 20.2639 19.11C19.9639 19.41 19.5839 19.56 19.1239 19.56C18.6639 19.56 18.2839 19.41 17.9839 19.11C17.6839 18.82 17.5339 18.445 17.5339 17.985C17.5339 17.525 17.6839 17.145 17.9839 16.845C18.2839 16.545 18.6639 16.395 19.1239 16.395ZM24.98 15.3C24.98 14.56 25.09 13.955 25.31 13.485C25.54 13.015 25.93 12.575 26.48 12.165C26.97 11.785 27.32 11.47 27.53 11.22C27.74 10.96 27.845 10.66 27.845 10.32C27.845 9.94 27.715 9.645 27.455 9.435C27.195 9.215 26.83 9.105 26.36 9.105C25.88 9.105 25.5 9.25 25.22 9.54C24.95 9.82 24.815 10.165 24.815 10.575H22.205C22.205 9.865 22.38 9.225 22.73 8.655C23.09 8.075 23.58 7.62 24.2 7.29C24.83 6.96 25.545 6.795 26.345 6.795C27.195 6.795 27.925 6.945 28.535 7.245C29.145 7.545 29.61 7.965 29.93 8.505C30.25 9.035 30.41 9.64 30.41 10.32C30.41 11.37 29.905 12.285 28.895 13.065C28.345 13.495 27.965 13.87 27.755 14.19C27.555 14.51 27.455 14.88 27.455 15.3H24.98ZM26.3 19.56C25.84 19.56 25.46 19.41 25.16 19.11C24.86 18.82 24.71 18.445 24.71 17.985C24.71 17.525 24.86 17.145 25.16 16.845C25.46 16.545 25.84 16.395 26.3 16.395C26.76 16.395 27.14 16.545 27.44 16.845C27.74 17.145 27.89 17.525 27.89 17.985C27.89 18.445 27.74 18.82 27.44 19.11C27.14 19.41 26.76 19.56 26.3 19.56ZM34.3947 15.3H32.5347L31.8447 7.125H35.0847L34.3947 15.3ZM33.4647 16.395C33.9247 16.395 34.3047 16.545 34.6047 16.845C34.9047 17.145 35.0547 17.525 35.0547 17.985C35.0547 18.445 34.9047 18.82 34.6047 19.11C34.3047 19.41 33.9247 19.56 33.4647 19.56C33.0047 19.56 32.6247 19.41 32.3247 19.11C32.0247 18.82 31.8747 18.445 31.8747 17.985C31.8747 17.525 32.0247 17.145 32.3247 16.845C32.6247 16.545 33.0047 16.395 33.4647 16.395Z" fill="black"/>
</g>
<defs>
<clipPath id="clip0_262_9355">
<rect width="44" height="30" fill="white"/>
</clipPath>
</defs>
</svg>
