<svg width="359" height="325" viewBox="0 0 359 325" fill="none" xmlns="http://www.w3.org/2000/svg">
<mask id="mask0_501_12113" style="mask-type:alpha" maskUnits="userSpaceOnUse" x="0" y="0" width="359" height="325">
<rect x="0.5" y="0.5" width="358" height="324" rx="10.5" fill="#0C0C14" stroke="#CB7BFF"/>
</mask>
<g mask="url(#mask0_501_12113)">
<rect width="359" height="325" rx="11" fill="#0C0C14"/>
<rect x="0.5" y="0.5" width="358" height="324" rx="10.5" stroke="#CB7BFF" stroke-opacity="0.6"/>
<g filter="url(#filter0_f_501_12113)">
<ellipse cx="361.337" cy="52.2119" rx="33.3367" ry="32.6338" fill="#034AD5"/>
<path d="M394.296 52.2119C394.296 70.0194 379.547 84.4688 361.337 84.4688C343.126 84.4688 328.377 70.0194 328.377 52.2119C328.377 34.4044 343.126 19.955 361.337 19.955C379.547 19.955 394.296 34.4044 394.296 52.2119Z" stroke="#CB7BFF" stroke-width="0.753691"/>
</g>
<g filter="url(#filter1_f_501_12113)">
<ellipse cx="372.5" cy="254.941" rx="26.5" ry="25.9413" fill="#972D84"/>
<path d="M398.7 254.941C398.7 269.097 386.976 280.583 372.5 280.583C358.024 280.583 346.3 269.097 346.3 254.941C346.3 240.786 358.024 229.3 372.5 229.3C386.976 229.3 398.7 240.786 398.7 254.941Z" stroke="#CB7BFF" stroke-width="0.599125"/>
</g>
<g filter="url(#filter2_f_501_12113)">
<ellipse cx="-17" cy="145.858" rx="46" ry="45.0301" fill="#5C1EFA"/>
<path d="M28.6348 145.858C28.6348 170.519 8.21076 190.523 -17 190.523C-42.2108 190.523 -62.6348 170.519 -62.6348 145.858C-62.6348 121.198 -42.2108 101.193 -17 101.193C8.21076 101.193 28.6348 121.198 28.6348 145.858Z" stroke="#CB7BFF" stroke-width="0.730457"/>
</g>
</g>
<g filter="url(#filter3_d_501_12113)">
<path d="M37.7076 77H49.2366V74.354H40.8396V57.128H37.7076V77ZM56.0686 77.351C60.4156 77.351 63.0616 74.759 63.0616 71.573C63.0616 68.657 61.3606 67.199 59.0116 66.2L56.2846 65.039C54.6646 64.391 53.0716 63.743 53.0716 62.042C53.0716 60.449 54.3946 59.477 56.4196 59.477C58.1746 59.477 59.5516 60.152 60.7936 61.259L62.4406 59.261C60.9286 57.722 58.7416 56.75 56.4196 56.75C52.6396 56.75 49.8856 59.099 49.8856 62.231C49.8856 65.12 52.0186 66.632 53.9356 67.442L56.6896 68.63C58.5256 69.44 59.8756 70.007 59.8756 71.816C59.8756 73.49 58.5256 74.624 56.1226 74.624C54.2056 74.624 52.2616 73.706 50.8306 72.275L48.9946 74.435C50.8036 76.271 53.3416 77.351 56.0686 77.351ZM68.3574 59.639H71.3543C74.2434 59.639 75.8094 60.476 75.8094 62.879C75.8094 65.282 74.2434 66.47 71.3543 66.47H68.3574V59.639ZM79.6164 77L74.7564 68.576C77.2674 67.793 78.9144 65.957 78.9144 62.879C78.9144 58.586 75.8364 57.128 71.7324 57.128H65.2254V77H68.3574V68.981H71.5704L76.0794 77H79.6164ZM79.0227 81.86H81.1827L88.6887 55.454H86.5287L79.0227 81.86ZM97.5282 77.351C101.929 77.351 104.899 74.948 104.899 68.468V57.128H101.875V68.684C101.875 73.166 100.039 74.624 97.5282 74.624C95.0442 74.624 93.2622 73.166 93.2622 68.684V57.128H90.1302V68.468C90.1302 74.948 93.1272 77.351 97.5282 77.351ZM105.963 77H109.284L111.822 72.059C112.308 71.06 112.794 70.034 113.361 68.819H113.469C114.09 70.034 114.603 71.06 115.116 72.059L117.735 77H121.218L115.494 66.902L120.84 57.128H117.546L115.197 61.772C114.738 62.69 114.36 63.581 113.847 64.769H113.712C113.118 63.581 112.686 62.69 112.2 61.772L109.797 57.128H106.314L111.66 66.74L105.963 77ZM140.022 64.391C140.697 61.88 140.697 59.855 140.697 57.911V55.859H123.957V58.1H137.943C137.943 59.936 137.916 61.691 137.295 64.094L140.022 64.391ZM132.327 76.946C128.709 76.946 126.495 76.055 126.495 74.516C126.495 73.004 128.709 72.113 132.327 72.113C135.918 72.113 138.078 73.004 138.078 74.516C138.078 76.055 135.918 76.946 132.327 76.946ZM132.327 69.98C127.062 69.98 123.741 71.708 123.741 74.516C123.741 77.351 127.062 79.079 132.327 79.079C137.511 79.079 140.859 77.351 140.859 74.516C140.859 71.708 137.511 69.98 132.327 69.98ZM132.867 65.849V61.367H130.059V65.849H121.419V68.09H143.397V65.849H132.867ZM149.814 58.856H161.424V66.092H149.814V58.856ZM157.023 73.814V68.306H164.151V56.642H147.087V68.306H154.242V73.814H144.63V76.082H166.716V73.814H157.023ZM180.855 61.232V63.527H185.283V72.545H188.064V54.725H185.283V61.232H180.855ZM182.367 66.929C178.722 65.66 176.643 62.609 176.643 59.612V58.775H181.719V56.534H168.678V58.775H173.835V59.612C173.835 62.906 171.621 66.119 167.841 67.442L169.272 69.629C172.161 68.63 174.213 66.497 175.293 63.851C176.319 66.254 178.29 68.171 180.99 69.089L182.367 66.929ZM175.05 76.352V71.006H172.269V78.62H188.685V76.352H175.05Z" fill="url(#paint0_linear_501_12113)"/>
<path d="M221.122 63.689C216.208 62.987 212.536 59.936 212.536 56.777V55.481H209.593V56.777C209.593 59.99 205.975 62.987 201.007 63.689L202.087 65.93C206.137 65.282 209.512 63.257 211.078 60.422C212.671 63.23 215.992 65.282 220.042 65.93L221.122 63.689ZM222.067 68.225H200.035V70.493H209.593V79.106H212.374V70.493H222.067V68.225ZM237.447 65.849C233.829 64.661 231.75 61.691 231.75 58.559V55.94H228.942V58.343C228.942 61.853 226.863 65.174 223.029 66.497L224.514 68.711C227.322 67.685 229.32 65.579 230.4 62.933C231.426 65.228 233.37 67.091 235.989 68.036L237.447 65.849ZM234.45 76.892C231.048 76.892 229.077 76.055 229.077 74.489C229.077 72.977 231.048 72.113 234.45 72.113C237.852 72.113 239.823 72.977 239.823 74.489C239.823 76.055 237.852 76.892 234.45 76.892ZM234.45 69.926C229.428 69.926 226.323 71.627 226.323 74.489C226.323 77.378 229.428 79.079 234.45 79.079C239.499 79.079 242.577 77.378 242.577 74.489C242.577 71.627 239.499 69.926 234.45 69.926ZM242.307 60.719V54.671H239.526V69.332H242.307V63.014H245.763V60.719H242.307ZM260.847 66.281C257.121 65.039 255.069 62.042 255.069 58.964V58.532H260.172V56.264H247.077V58.532H252.261V58.964C252.261 62.312 250.128 65.417 246.267 66.713L247.725 68.9C250.587 67.901 252.612 65.903 253.692 63.338C254.745 65.66 256.689 67.523 259.416 68.414L260.847 66.281ZM249.507 72.815H262.764V79.079H265.545V70.574H249.507V72.815ZM269.001 60.908H265.545V54.671H262.764V69.386H265.545V63.203H269.001V60.908ZM283.798 64.175H277.831V61.07H283.798V64.175ZM286.552 55.724H283.798V58.937H277.831V55.724H275.05V66.389H286.552V55.724ZM280.288 74.516H293.248V68.279H277.507V70.439H290.494V72.464H277.561V78.863H294.058V76.676H280.288V74.516ZM293.248 59.693V54.698H290.467V67.199H293.248V61.988H296.677V59.693H293.248ZM306.037 68.738H310.843V73.976H306.037V68.738ZM305.632 59.045H311.248V66.497H305.632V59.045ZM313.597 73.976V68.738H317.512V66.497H314.002V59.045H317.593V56.804H299.26V59.045H302.851V66.497H299.341V68.738H303.256V73.976H297.451V76.271H319.564V73.976H313.597Z" fill="white"/>
</g>
<g filter="url(#filter4_d_501_12113)">
<path d="M60.3719 133H69.4579V131.262H62.4179V116.874H60.3719V133ZM76.3872 133.286C78.5652 133.286 80.3472 132.494 81.3812 131.416V124.64H76.1012V126.334H79.5112V130.558C78.8732 131.152 77.7512 131.504 76.5852 131.504C73.1312 131.504 71.2172 128.952 71.2172 124.882C71.2172 120.856 73.3292 118.348 76.5632 118.348C78.2132 118.348 79.2472 119.03 80.0612 119.888L81.1612 118.568C80.2372 117.578 78.7632 116.566 76.5192 116.566C72.2512 116.566 69.1272 119.734 69.1272 124.948C69.1272 130.184 72.1412 133.286 76.3872 133.286ZM91.4731 117.138C94.4871 117.138 96.5331 118.238 96.5331 119.976C96.5331 121.714 94.4871 122.836 91.4731 122.836C88.4811 122.836 86.4351 121.714 86.4351 119.976C86.4351 118.238 88.4811 117.138 91.4731 117.138ZM91.4731 124.288C95.5871 124.288 98.3811 122.616 98.3811 119.976C98.3811 117.336 95.5871 115.686 91.4731 115.686C87.3811 115.686 84.5871 117.336 84.5871 119.976C84.5871 122.616 87.3811 124.288 91.4731 124.288ZM100.449 126.136H82.5851V127.61H87.1831V134.628H89.0091V127.61H93.9591V134.628H95.7851V127.61H100.449V126.136ZM112.575 120.658H107.669V116.896H112.575V120.658ZM105.865 120.658H102.939V122.044H117.283V120.658H114.379V116.896H117.349V115.51H102.873V116.896H105.865V120.658ZM105.183 131.196H116.777V126.862H103.357V128.204H114.995V129.898H103.423V134.408H117.371V133.044H105.183V131.196ZM101.201 123.694V125.124H119.065V123.694H101.201ZM122.37 123.628H129.366V116.72H120.544V118.194H127.606V122.176H120.588V129.898H122.106C125.67 129.898 128.178 129.788 131.148 129.26L130.972 127.764C128.134 128.27 125.736 128.402 122.37 128.402V123.628ZM134.294 114.872V122.484H130.532V123.958H134.294V134.65H136.098V114.872H134.294ZM155.506 124.816C152.052 124.156 148.312 121.164 148.312 117.798V116.28H146.42V117.798C146.42 121.164 142.702 124.134 139.248 124.816L140.062 126.312C143.032 125.608 146.112 123.496 147.366 120.614C148.62 123.518 151.7 125.63 154.692 126.312L155.506 124.816ZM138.5 130.492V131.988H156.386V130.492H138.5ZM161.492 133H170.578V131.262H163.538V116.874H161.492V133ZM175.745 133.286C179.111 133.286 181.223 131.262 181.223 128.71C181.223 126.312 179.771 125.212 177.901 124.398L175.591 123.408C174.337 122.88 172.929 122.286 172.929 120.724C172.929 119.272 174.117 118.348 175.943 118.348C177.439 118.348 178.627 118.942 179.617 119.866L180.695 118.568C179.551 117.38 177.857 116.566 175.943 116.566C173.017 116.566 170.861 118.37 170.861 120.856C170.861 123.21 172.643 124.354 174.139 124.992L176.471 126.004C177.989 126.686 179.155 127.214 179.155 128.864C179.155 130.448 177.879 131.504 175.767 131.504C174.095 131.504 172.467 130.712 171.301 129.502L170.091 130.888C171.499 132.362 173.457 133.286 175.745 133.286ZM184.83 118.524H187.536C190.066 118.524 191.452 119.272 191.452 121.406C191.452 123.496 190.066 124.508 187.536 124.508H184.83V118.524ZM193.96 133L189.824 125.938C192.024 125.41 193.476 123.914 193.476 121.406C193.476 118.04 191.122 116.874 187.844 116.874H182.784V133H184.83V126.158H187.734L191.65 133H193.96ZM193.191 136.938H194.665L201.243 115.554H199.791L193.191 136.938ZM207.884 133.286C211.184 133.286 213.692 131.526 213.692 126.334V116.874H211.734V126.4C211.734 130.294 210.04 131.504 207.884 131.504C205.794 131.504 204.144 130.294 204.144 126.4V116.874H202.098V126.334C202.098 131.526 204.606 133.286 207.884 133.286ZM214.358 133H216.492L218.824 128.644C219.242 127.852 219.66 127.016 220.122 126.048H220.21C220.738 127.016 221.178 127.852 221.596 128.644L223.972 133H226.216L221.508 124.772L225.908 116.874H223.774L221.618 120.988C221.222 121.736 220.914 122.418 220.474 123.342H220.386C219.858 122.418 219.528 121.736 219.11 120.988L216.91 116.874H214.666L219.066 124.662L214.358 133ZM242.353 114.894H240.549V129.37H242.353V114.894ZM238.041 124.728C235.115 123.65 233.113 120.966 233.113 117.996V115.994H231.309V117.996C231.309 121.076 229.329 123.936 226.359 125.08L227.305 126.554C229.615 125.586 231.397 123.672 232.233 121.274C233.113 123.518 234.851 125.3 237.095 126.158L238.041 124.728ZM231.463 132.714V128.028H229.659V134.188H242.947V132.714H231.463ZM259.187 114.916V125.498H260.991V114.916H259.187ZM248.275 126.466V134.364H260.991V126.466H259.209V128.886H250.057V126.466H248.275ZM250.057 130.294H259.209V132.912H250.057V130.294ZM250.387 115.84C247.417 115.84 245.261 117.688 245.261 120.372C245.261 123.1 247.417 124.926 250.387 124.926C253.379 124.926 255.557 123.1 255.557 120.372C255.557 117.688 253.379 115.84 250.387 115.84ZM250.387 117.336C252.389 117.336 253.797 118.59 253.797 120.372C253.797 122.176 252.389 123.43 250.387 123.43C248.429 123.43 247.021 122.176 247.021 120.372C247.021 118.59 248.429 117.336 250.387 117.336ZM270.059 116.61H268.277V120.152C268.277 123.738 266.033 127.522 263.195 128.974L264.273 130.426C266.495 129.238 268.321 126.774 269.179 123.892C270.081 126.598 271.863 128.908 273.953 130.03L275.075 128.6C272.303 127.214 270.059 123.628 270.059 120.152V116.61ZM281.873 122.902H278.617V114.916H276.813V134.628H278.617V124.398H281.873V122.902ZM292.416 126.554V127.896H296.42V129.92H298.224V114.894H296.42V126.554H292.416ZM288.39 117.028C290.26 117.028 291.536 117.864 291.536 119.118C291.536 120.394 290.26 121.23 288.39 121.23C286.52 121.23 285.244 120.394 285.244 119.118C285.244 117.864 286.52 117.028 288.39 117.028ZM288.39 122.572C291.272 122.572 293.252 121.23 293.252 119.118C293.252 117.05 291.272 115.686 288.39 115.686C285.508 115.686 283.528 117.05 283.528 119.118C283.528 121.23 285.508 122.572 288.39 122.572ZM287.686 129.216H289.49V125.322C291.272 125.212 293.098 125.014 294.836 124.75L294.682 123.452C290.502 123.98 285.618 124.024 281.966 124.024L282.208 125.52C283.836 125.52 285.728 125.498 287.686 125.41V129.216ZM286.586 132.714V128.446H284.782V134.188H298.73V132.714H286.586ZM57.9793 156.042H61.6973V154.568H58.0013V151.62H56.2633V154.568H52.5453V156.042H56.2633V156.944C56.2633 160.178 54.7233 163.61 52.0613 165.172L53.1393 166.536C55.0753 165.392 56.4613 163.192 57.1433 160.684C57.8693 163.038 59.2553 165.018 61.1913 166.096L62.2253 164.754C59.5853 163.302 57.9793 160.09 57.9793 156.944V156.042ZM67.3293 150.894V158.858H64.7333V151.334H63.0393V169.66H64.7333V160.354H67.3293V170.628H69.0673V150.894H67.3293ZM79.7856 169.22C76.6836 169.22 74.8576 168.45 74.8576 167.108C74.8576 165.766 76.6836 164.996 79.7856 164.996C82.8656 164.996 84.7136 165.766 84.7136 167.108C84.7136 168.45 82.8656 169.22 79.7856 169.22ZM79.7856 163.588C75.5616 163.588 73.0316 164.842 73.0316 167.108C73.0316 169.374 75.5616 170.606 79.7856 170.606C84.0316 170.606 86.5396 169.374 86.5396 167.108C86.5396 164.842 84.0316 163.588 79.7856 163.588ZM77.0576 158.352C77.8716 158.484 78.7956 158.572 79.7856 158.572C80.7976 158.572 81.7216 158.484 82.5356 158.352V160.662H77.0576V158.352ZM74.7036 154.92C74.7036 153.49 76.6396 152.654 79.7856 152.654C82.9316 152.654 84.8676 153.49 84.8676 154.92C84.8676 156.328 82.9316 157.186 79.7856 157.186C76.6396 157.186 74.7036 156.328 74.7036 154.92ZM84.3176 160.662V157.868C85.8356 157.252 86.7156 156.24 86.7156 154.92C86.7156 152.61 84.0756 151.246 79.7856 151.246C75.5176 151.246 72.8556 152.61 72.8556 154.92C72.8556 156.262 73.7136 157.252 75.2756 157.89V160.662H70.8536V162.114H88.7176V160.662H84.3176ZM91.5379 157.098C91.5379 155.14 92.9679 153.732 94.9039 153.732C96.8179 153.732 98.2479 155.14 98.2479 157.098C98.2479 159.056 96.8179 160.464 94.9039 160.464C92.9679 160.464 91.5379 159.056 91.5379 157.098ZM103.946 155.448V158.726H99.6999C99.8759 158.22 99.9639 157.67 99.9639 157.098C99.9639 156.504 99.8759 155.954 99.6999 155.448H103.946ZM103.946 160.178V165.48H105.772V150.916H103.946V153.996H98.9299C98.0059 152.852 96.5979 152.148 94.9039 152.148C91.9999 152.148 89.8219 154.216 89.8219 157.098C89.8219 159.98 91.9999 162.048 94.9039 162.048C96.5979 162.048 98.0279 161.344 98.9519 160.178H103.946ZM94.9699 168.714V163.984H93.1439V170.188H106.322V168.714H94.9699ZM119.24 156.394H116.314C116.49 155.404 116.578 154.414 116.578 153.402H109.01V154.876H114.796C114.488 159.012 112.376 162.554 108.13 165.084L109.186 166.36C112.926 164.138 115.06 161.168 115.984 157.846H119.24V161.322H115.676V162.796H119.24V169.616H120.956V151.422H119.24V156.394ZM123.2 150.894V170.606H124.916V150.894H123.2ZM143.904 153.578C143.904 155.118 143.904 156.57 143.376 158.594L145.136 158.792C145.686 156.768 145.686 155.162 145.686 153.578V151.906H132.244V153.358H143.904V153.578ZM138.954 169.198C135.874 169.198 133.894 168.362 133.894 166.998C133.894 165.59 135.874 164.754 138.954 164.754C142.056 164.754 144.036 165.59 144.036 166.998C144.036 168.362 142.056 169.198 138.954 169.198ZM138.954 163.368C134.752 163.368 132.09 164.71 132.09 166.998C132.09 169.242 134.752 170.606 138.954 170.606C143.156 170.606 145.84 169.242 145.84 166.998C145.84 164.71 143.156 163.368 138.954 163.368ZM139.24 160.09V156.306H137.436V160.09H130.154V161.564H147.908V160.09H139.24ZM152.599 153.974H162.697V160.376H152.599V153.974ZM158.583 166.602V161.806H164.457V152.544H150.861V161.806H156.757V166.602H148.749V168.098H166.635V166.602H158.583ZM177.859 156.35V157.824H181.819V165.37H183.645V150.916H181.819V156.35H177.859ZM179.025 160.992C176.165 159.98 174.229 157.516 174.229 154.942V153.974H178.563V152.5H168.025V153.974H172.425V154.964C172.425 157.758 170.379 160.376 167.453 161.432L168.399 162.84C170.709 162.004 172.513 160.178 173.371 157.934C174.229 159.958 175.923 161.608 178.123 162.4L179.025 160.992ZM172.843 168.714V164.094H171.017V170.188H184.195V168.714H172.843ZM190.491 164.622C188.907 164.622 187.917 162.62 187.917 159.386C187.917 156.218 188.907 154.216 190.491 154.216C192.031 154.216 193.043 156.218 193.043 159.386C193.043 162.62 192.031 164.622 190.491 164.622ZM197.157 158.572H194.671C194.451 154.854 192.867 152.544 190.491 152.544C187.917 152.544 186.267 155.184 186.267 159.386C186.267 163.654 187.917 166.294 190.491 166.294C192.911 166.294 194.517 163.918 194.671 160.046H197.157V169.66H198.873V151.334H197.157V158.572ZM201.073 150.894V170.628H202.789V150.894H201.073ZM215.023 154.414H219.665V152.918H208.643V154.414H213.219V156.922C213.219 160.332 210.821 164.05 207.983 165.392L209.039 166.844C211.283 165.7 213.219 163.214 214.121 160.332C215.067 163.038 217.003 165.304 219.291 166.36L220.303 164.908C217.399 163.676 215.023 160.266 215.023 156.922V154.414ZM222.327 150.916V170.628H224.131V150.916H222.327ZM236.962 162.554V163.896H240.966V165.92H242.77V150.894H240.966V162.554H236.962ZM232.936 153.028C234.806 153.028 236.082 153.864 236.082 155.118C236.082 156.394 234.806 157.23 232.936 157.23C231.066 157.23 229.79 156.394 229.79 155.118C229.79 153.864 231.066 153.028 232.936 153.028ZM232.936 158.572C235.818 158.572 237.798 157.23 237.798 155.118C237.798 153.05 235.818 151.686 232.936 151.686C230.054 151.686 228.074 153.05 228.074 155.118C228.074 157.23 230.054 158.572 232.936 158.572ZM232.232 165.216H234.036V161.322C235.818 161.212 237.644 161.014 239.382 160.75L239.228 159.452C235.048 159.98 230.164 160.024 226.512 160.024L226.754 161.52C228.382 161.52 230.274 161.498 232.232 161.41V165.216ZM231.132 168.714V164.446H229.328V170.188H243.276V168.714H231.132ZM250.144 164.556C248.604 164.556 247.526 163.302 247.526 161.542C247.526 159.826 248.604 158.572 250.144 158.572C251.662 158.572 252.762 159.826 252.762 161.542C252.762 163.302 251.662 164.556 250.144 164.556ZM250.144 157.054C247.702 157.054 245.92 158.902 245.92 161.542C245.92 164.226 247.702 166.052 250.144 166.052C252.586 166.052 254.368 164.226 254.368 161.542C254.368 158.902 252.586 157.054 250.144 157.054ZM251.024 151.466H249.242V154.26H245.238V155.734H255.028V154.26H251.024V151.466ZM260.242 150.872V159.21H257.712V151.334H256.018V169.66H257.712V160.684H260.242V170.606H261.98V150.872H260.242ZM268.978 160.486C272.036 159.958 274.94 158.308 276.15 155.976C277.338 158.308 280.264 159.958 283.322 160.486L284.026 159.056C280.55 158.55 277.14 156.284 277.14 153.688V153.578H283.322V152.126H268.912V153.578H275.138V153.688C275.138 156.284 271.728 158.55 268.296 159.056L268.978 160.486ZM285.06 162.136H267.24V163.61H275.204V170.628H277.008V163.61H285.082L285.06 162.136ZM302.048 150.894H300.244V165.37H302.048V150.894ZM297.736 160.728C294.81 159.65 292.808 156.966 292.808 153.996V151.994H291.004V153.996C291.004 157.076 289.024 159.936 286.054 161.08L287 162.554C289.31 161.586 291.092 159.672 291.928 157.274C292.808 159.518 294.546 161.3 296.79 162.158L297.736 160.728ZM291.158 168.714V164.028H289.354V170.188H302.642V168.714H291.158ZM35.1875 189.974H45.2855V196.376H35.1875V189.974ZM41.1715 202.602V197.806H47.0455V188.544H33.4495V197.806H39.3455V202.602H31.3375V204.098H49.2235V202.602H41.1715ZM65.7718 193.23H54.0238V189.204H65.5958V187.73H52.2198V194.682H65.7718V193.23ZM54.0678 200.402H52.2638V206.166H65.9478V204.692H54.0678V200.402ZM49.9758 196.86V198.312H67.8178V196.86H49.9758ZM85.662 193.978H76.07V191.426H85.662V193.978ZM87.444 187.532H85.662V190.04H76.07V187.532H74.288V195.408H87.444V187.532ZM75.96 200.82H74.178V206.188H87.818V204.714H75.96V200.82ZM71.89 197.322V198.774H80.096V202.602H81.9V198.774H89.82V197.322H71.89ZM106.302 192.086H94.7522V189.006H106.104V187.554H92.9482V193.538H106.302V192.086ZM94.5322 202.954H106.126V198.312H92.7062V199.72H104.344V201.612H92.7722V206.386H106.72V204.978H94.5322V202.954ZM90.5722 195.122V196.596H108.436V195.122H90.5722ZM109.673 189.248V190.722H112.511C112.379 194.396 111.697 198.004 109.255 201.15L110.663 201.942C113.501 198.114 114.051 193.472 114.051 189.248H109.673ZM120.673 194.638H118.143C118.363 192.724 118.407 190.876 118.407 189.248H114.711V190.722H116.845C116.779 194.44 116.317 198.884 113.633 202.404L115.041 203.218C116.625 201.062 117.461 198.576 117.923 196.112H120.673V205.616H122.367V187.4H120.673V194.638ZM124.325 186.894V206.606H126.041V186.894H124.325ZM147.361 186.916H145.557V201.348H147.361V186.916ZM143.225 197.102C140.321 196.134 138.275 193.736 138.275 191.074V189.996H142.741V188.544H131.917V189.996H136.427V191.074C136.427 193.89 134.425 196.464 131.433 197.498L132.379 198.906C134.711 198.07 136.537 196.288 137.373 194.044C138.275 196.112 140.079 197.74 142.345 198.532L143.225 197.102ZM136.471 204.714V199.984H134.667V206.188H147.955V204.714H136.471ZM161.753 195.826C158.827 194.858 156.759 192.394 156.759 189.6V187.686H154.955V189.6C154.955 192.504 152.931 195.144 149.939 196.222L150.863 197.63C153.195 196.772 155.021 194.946 155.879 192.658C156.781 194.792 158.585 196.464 160.851 197.256L161.753 195.826ZM154.999 200.688H164.239V204.912H154.999V200.688ZM153.239 206.364H165.999V199.258H153.239V206.364ZM164.195 186.916V198.136H165.999V186.916H164.195ZM177.355 188.126C173.263 188.126 170.183 190.304 170.183 193.582C170.183 196.882 173.263 199.038 177.355 199.038C181.447 199.038 184.527 196.882 184.527 193.582C184.527 190.304 181.447 188.126 177.355 188.126ZM177.355 189.6C180.479 189.6 182.811 191.206 182.811 193.582C182.811 195.98 180.479 197.564 177.355 197.564C174.253 197.564 171.899 195.98 171.899 193.582C171.899 191.206 174.253 189.6 177.355 189.6ZM168.423 202.514V204.01H186.353V202.514H168.423ZM196.918 202.712V198.994H203.232V197.542H191.088V194.352H202.77V188.346H189.262V189.82H201.01V192.9H189.306V198.994H195.092V202.712H187.062V204.186H204.992V202.712H196.918ZM209.9 188.148V189.622H217.072C216.72 192.966 213.838 195.562 209.02 196.86L209.724 198.29C215.532 196.706 219.008 193.164 219.008 188.148H209.9ZM213.706 200.468H222.572V204.89H213.706V200.468ZM211.924 206.342H224.354V199.016H211.924V206.342ZM227.28 191.712H224.354V186.872H222.55V198.092H224.354V193.208H227.28V191.712ZM234.302 188.61H232.52V192.152C232.52 195.738 230.276 199.522 227.438 200.974L228.516 202.426C230.738 201.238 232.564 198.774 233.422 195.892C234.324 198.598 236.106 200.908 238.196 202.03L239.318 200.6C236.546 199.214 234.302 195.628 234.302 192.152V188.61ZM246.116 194.902H242.86V186.916H241.056V206.628H242.86V196.398H246.116V194.902ZM262.136 196.354H250.366V190.194H261.938V188.698H248.584V197.828H262.136V196.354ZM246.296 202.47V203.966H264.204V202.47H246.296ZM276.947 195.232C273.823 195.738 271.249 195.848 267.751 195.848V193.186H274.901V187.862H265.925V189.314H273.119V191.8H265.991V197.322H267.575C271.227 197.322 273.911 197.212 277.145 196.684L276.947 195.232ZM279.367 204.89H270.149V202.47H279.367V204.89ZM279.367 201.062H270.149V198.73H268.367V206.364H281.149V198.73H279.367V201.062ZM279.345 186.916V197.74H281.149V186.916H279.345ZM286.631 188.808H284.827V201.524H286.455C289.601 201.524 292.703 201.304 296.135 200.6L295.937 199.06C292.659 199.72 289.601 199.984 286.631 199.984V188.808ZM297.961 186.894V206.606H299.765V186.894H297.961ZM304.873 190.282H312.243V188.786H303.069V201.744H304.631C308.349 201.744 310.945 201.612 313.959 201.04L313.761 199.544C310.901 200.05 308.371 200.204 304.873 200.204V190.282ZM320.669 194.682H317.413V186.894H315.609V206.672H317.413V196.178H320.669V194.682ZM322.763 205.286C323.555 205.286 324.215 204.67 324.215 203.768C324.215 202.866 323.555 202.206 322.763 202.206C321.971 202.206 321.311 202.866 321.311 203.768C321.311 204.67 321.971 205.286 322.763 205.286Z" fill="white"/>
</g>
<defs>
<filter id="filter0_f_501_12113" x="198.285" y="-110.137" width="326.102" height="324.697" filterUnits="userSpaceOnUse" color-interpolation-filters="sRGB">
<feFlood flood-opacity="0" result="BackgroundImageFix"/>
<feBlend mode="normal" in="SourceGraphic" in2="BackgroundImageFix" result="shape"/>
<feGaussianBlur stdDeviation="64.8573" result="effect1_foregroundBlur_501_12113"/>
</filter>
<filter id="filter1_f_501_12113" x="242.887" y="125.887" width="259.226" height="258.108" filterUnits="userSpaceOnUse" color-interpolation-filters="sRGB">
<feFlood flood-opacity="0" result="BackgroundImageFix"/>
<feBlend mode="normal" in="SourceGraphic" in2="BackgroundImageFix" result="shape"/>
<feGaussianBlur stdDeviation="51.5564" result="effect1_foregroundBlur_501_12113"/>
</filter>
<filter id="filter2_f_501_12113" x="-206.191" y="-42.3625" width="378.381" height="376.442" filterUnits="userSpaceOnUse" color-interpolation-filters="sRGB">
<feFlood flood-opacity="0" result="BackgroundImageFix"/>
<feBlend mode="normal" in="SourceGraphic" in2="BackgroundImageFix" result="shape"/>
<feGaussianBlur stdDeviation="71.5953" result="effect1_foregroundBlur_501_12113"/>
</filter>
<filter id="filter3_d_501_12113" x="27.708" y="44.6709" width="301.855" height="47.1895" filterUnits="userSpaceOnUse" color-interpolation-filters="sRGB">
<feFlood flood-opacity="0" result="BackgroundImageFix"/>
<feColorMatrix in="SourceAlpha" type="matrix" values="0 0 0 0 0 0 0 0 0 0 0 0 0 0 0 0 0 0 127 0" result="hardAlpha"/>
<feOffset/>
<feGaussianBlur stdDeviation="5"/>
<feComposite in2="hardAlpha" operator="out"/>
<feColorMatrix type="matrix" values="0 0 0 0 0 0 0 0 0 0 0 0 0 0 0 0 0 0 1 0"/>
<feBlend mode="normal" in2="BackgroundImageFix" result="effect1_dropShadow_501_12113"/>
<feBlend mode="normal" in="SourceGraphic" in2="effect1_dropShadow_501_12113" result="shape"/>
</filter>
<filter id="filter4_d_501_12113" x="21.3379" y="104.872" width="312.878" height="111.8" filterUnits="userSpaceOnUse" color-interpolation-filters="sRGB">
<feFlood flood-opacity="0" result="BackgroundImageFix"/>
<feColorMatrix in="SourceAlpha" type="matrix" values="0 0 0 0 0 0 0 0 0 0 0 0 0 0 0 0 0 0 127 0" result="hardAlpha"/>
<feOffset/>
<feGaussianBlur stdDeviation="5"/>
<feComposite in2="hardAlpha" operator="out"/>
<feColorMatrix type="matrix" values="0 0 0 0 0 0 0 0 0 0 0 0 0 0 0 0 0 0 1 0"/>
<feBlend mode="normal" in2="BackgroundImageFix" result="effect1_dropShadow_501_12113"/>
<feBlend mode="normal" in="SourceGraphic" in2="effect1_dropShadow_501_12113" result="shape"/>
</filter>
<linearGradient id="paint0_linear_501_12113" x1="43.2257" y1="68.4631" x2="310.243" y2="68.4631" gradientUnits="userSpaceOnUse">
<stop stop-color="#D1A2E4"/>
<stop offset="1" stop-color="#BF4BFF"/>
</linearGradient>
</defs>
</svg>
