<svg width="111" height="55" viewBox="0 0 111 55" fill="none" xmlns="http://www.w3.org/2000/svg">
<g clip-path="url(#clip0_204_11345)">
<mask id="path-1-inside-1_204_11345" fill="white">
<path fill-rule="evenodd" clip-rule="evenodd" d="M0 23.4996C0 36.4782 10.6196 47 23.7198 47H48.0747L53.6071 55L58.9838 47H87.2795C100.38 47 111 36.4782 111 23.4996C111 10.521 100.38 0 87.2795 0H23.7198C10.6196 0 0 10.521 0 23.4996Z"/>
</mask>
<path fill-rule="evenodd" clip-rule="evenodd" d="M0 23.4996C0 36.4782 10.6196 47 23.7198 47H48.0747L53.6071 55L58.9838 47H87.2795C100.38 47 111 36.4782 111 23.4996C111 10.521 100.38 0 87.2795 0H23.7198C10.6196 0 0 10.521 0 23.4996Z" fill="#0C0C14"/>
<path d="M48.0747 47L49.7196 45.8624L49.1232 45H48.0747V47ZM53.6071 55L51.9621 56.1376L53.6307 58.5504L55.267 56.1156L53.6071 55ZM58.9838 47V45H57.9182L57.3238 45.8844L58.9838 47ZM23.7198 45C11.7066 45 2 35.3562 2 23.4996H-2C-2 37.6003 9.53257 49 23.7198 49V45ZM48.0747 45H23.7198V49H48.0747V45ZM46.4297 48.1376L51.9621 56.1376L55.2521 53.8624L49.7196 45.8624L46.4297 48.1376ZM55.267 56.1156L60.6437 48.1156L57.3238 45.8844L51.9472 53.8844L55.267 56.1156ZM87.2795 45H58.9838V49H87.2795V45ZM109 23.4996C109 35.3561 99.2927 45 87.2795 45V49C101.467 49 113 37.6003 113 23.4996H109ZM87.2795 2C99.2928 2 109 11.6432 109 23.4996H113C113 9.39884 101.467 -2 87.2795 -2V2ZM23.7198 2H87.2795V-2H23.7198V2ZM2 23.4996C2 11.6431 11.7065 2 23.7198 2V-2C9.53265 -2 -2 9.39892 -2 23.4996H2Z" fill="#BD42FF" mask="url(#path-1-inside-1_204_11345)"/>
<mask id="path-3-inside-2_204_11345" fill="white">
<path fill-rule="evenodd" clip-rule="evenodd" d="M0 23.4996C0 36.4782 10.6196 47 23.7198 47H48.0747L53.6071 55L58.9838 47H87.2795C100.38 47 111 36.4782 111 23.4996C111 10.521 100.38 0 87.2795 0H23.7198C10.6196 0 0 10.521 0 23.4996Z"/>
</mask>
<path fill-rule="evenodd" clip-rule="evenodd" d="M0 23.4996C0 36.4782 10.6196 47 23.7198 47H48.0747L53.6071 55L58.9838 47H87.2795C100.38 47 111 36.4782 111 23.4996C111 10.521 100.38 0 87.2795 0H23.7198C10.6196 0 0 10.521 0 23.4996Z" fill="#0C0C14"/>
<path d="M48.0747 47L49.7196 45.8624L49.1232 45H48.0747V47ZM53.6071 55L51.9621 56.1376L53.6307 58.5504L55.267 56.1156L53.6071 55ZM58.9838 47V45H57.9182L57.3238 45.8844L58.9838 47ZM23.7198 45C11.7066 45 2 35.3562 2 23.4996H-2C-2 37.6003 9.53257 49 23.7198 49V45ZM48.0747 45H23.7198V49H48.0747V45ZM46.4297 48.1376L51.9621 56.1376L55.2521 53.8624L49.7196 45.8624L46.4297 48.1376ZM55.267 56.1156L60.6437 48.1156L57.3238 45.8844L51.9472 53.8844L55.267 56.1156ZM87.2795 45H58.9838V49H87.2795V45ZM109 23.4996C109 35.3561 99.2927 45 87.2795 45V49C101.467 49 113 37.6003 113 23.4996H109ZM87.2795 2C99.2928 2 109 11.6432 109 23.4996H113C113 9.39884 101.467 -2 87.2795 -2V2ZM23.7198 2H87.2795V-2H23.7198V2ZM2 23.4996C2 11.6431 11.7065 2 23.7198 2V-2C9.53265 -2 -2 9.39892 -2 23.4996H2Z" fill="#BD42FF" mask="url(#path-3-inside-2_204_11345)"/>
</g>
<defs>
<clipPath id="clip0_204_11345">
<rect width="111" height="55" fill="white"/>
</clipPath>
</defs>
</svg>
